PathFileType	4	(X/Y/Z)	./resultDataOpenSim/trcMotMarkerGrf/sub06/qtm-13-04.trc
DataRate	CameraRate	NumFrames	NumMarkers	Units	OrigDataRate	OrigDataStartFrame	OrigNumFrames
250.000000	250.000000	7	24	m	250.000000	67	533
Frame#	Time	L.Toe.Tip			R.Toe.Tip			L.Ankle.Lat			R.Ankle.Lat			L.Ankle.Med			R.Ankle.Med			L.Heel			R.Heel			L.Knee.Lat			R.Knee.Lat			L.Knee.Med			R.Knee.Med			L.Thigh.Upper			R.Thigh.Upper			L.ASIS			R.ASIS			V.Sacral			L.Acromium			R.Acromium			C7			L.Elbow			R.Elbow			L.Wrist.Lat			R.Wrist.Lat
		X1	Y1	Z1	X2	Y2	Z2	X3	Y3	Z3	X4	Y4	Z4	X5	Y5	Z5	X6	Y6	Z6	X7	Y7	Z7	X8	Y8	Z8	X9	Y9	Z9	X10	Y10	Z10	X11	Y11	Z11	X12	Y12	Z12	X13	Y13	Z13	X14	Y14	Z14	X15	Y15	Z15	X16	Y16	Z16	X17	Y17	Z17	X18	Y18	Z18	X19	Y19	Z19	X20	Y20	Z20	X21	Y21	Z21	X22	Y22	Z22	X23	Y23	Z23	X24	Y24	Z24

67	0.264	-1.484792	0.039726787	-0.10927457	-0.69760774	0.038546758	0.035719786	-1.4953485	0.16557881	-0.14689392	-0.83050789	0.060590943	0.058836581	-1.4803184	0.16821868	-0.064226133	-0.81723877	0.080994495	-0.029172894	-1.5462783	0.21509474	-0.09372775	-0.8874149	0.037411201	-0.0036384634	-1.1682801	0.37056158	-0.15908649	-0.83923991	0.44915006	0.081494971	-1.1750482	0.36739791	-0.038610491	-0.89243807	0.42868811	-0.034101761	-1.0839731	0.74637887	-0.18399318	-1.0266654	0.77445272	0.15748553	-0.99622692	0.79609805	-0.15107058	-0.9539452	0.82327848	0.085917418	-1.1586924	0.88791073	-0.0058589974	-1.0157256	1.2925915	-0.19295661	-1.0344034	1.2723554	0.17092345	-1.1023972	1.3212909	-0.015225336	-1.0026634	0.96556468	-0.25151812	-1.1675047	0.98471346	0.21000387	-0.78511454	0.8459775	-0.22774438	-1.1048166	0.75943526	0.25612725
68	0.268	-1.4800167	0.041813566	-0.11101771	-0.69692865	0.037923364	0.035236354	-1.4863546	0.16900166	-0.14723531	-0.83011742	0.060759838	0.058570864	-1.4713674	0.17116691	-0.064685471	-0.8166798	0.080683287	-0.029471937	-1.5353711	0.22050595	-0.094701372	-0.88714324	0.037503331	-0.0037093811	-1.1569626	0.36977224	-0.15999702	-0.83398674	0.44894842	0.081883151	-1.1626711	0.36528272	-0.039613949	-0.88500771	0.42949201	-0.034121352	-1.0760931	0.7464428	-0.18329062	-1.0202475	0.77503738	0.15810284	-0.98886696	0.79665364	-0.14998752	-0.94716854	0.82422358	0.086782317	-1.1513879	0.88811986	-0.0043925859	-1.0091155	1.2934248	-0.19225192	-1.0275809	1.272958	0.17147383	-1.0959931	1.3218738	-0.014615461	-0.99747277	0.96649498	-0.25051697	-1.1599572	0.98509377	0.21061719	-0.78137036	0.84415274	-0.22781696	-1.0968616	0.75998231	0.25733146
69	0.272	-1.4746875	0.044165078	-0.1127929	-0.69633983	0.037397335	0.034828682	-1.4768576	0.17231065	-0.14726756	-0.82986654	0.061065944	0.05820469	-1.4618085	0.17407227	-0.065102952	-0.81616574	0.080415949	-0.02974959	-1.5240414	0.22563131	-0.095589302	-0.88691116	0.037585518	-0.0037839647	-1.1455592	0.36905951	-0.16081269	-0.82914272	0.44870356	0.082396609	-1.1502052	0.36330744	-0.040504987	-0.87770119	0.43017683	-0.034209971	-1.0682711	0.74665025	-0.18260668	-1.013203	0.77575724	0.15888747	-0.98155319	0.79728089	-0.14891231	-0.94027832	0.82515453	0.087671694	-1.1440756	0.88842537	-0.0028653969	-1.0025836	1.2942683	-0.19160894	-1.0207716	1.2736291	0.17197409	-1.0896364	1.32252	-0.014021153	-0.9923052	0.96740075	-0.24949201	-1.1523961	0.9854775	0.21125498	-0.77772652	0.84233735	-0.22793708	-1.0884287	0.76058598	0.25855662
70	0.276	-1.4691033	0.046630941	-0.11407279	-0.69585748	0.036962312	0.034538994	-1.4669679	0.17546774	-0.14711253	-0.82969299	0.061347072	0.057797185	-1.4517918	0.17693059	-0.065484759	-0.81567399	0.080187465	-0.029997644	-1.5124512	0.23040537	-0.096287064	-0.88672915	0.037650613	-0.0038596125	-1.1340162	0.36842109	-0.16155328	-0.82443009	0.4484188	0.083072901	-1.1376131	0.36151095	-0.041284611	-0.87062887	0.43077149	-0.034323072	-1.0605102	0.74702944	-0.18195628	-1.0051563	0.77668203	0.15991042	-0.97428765	0.7979912	-0.1478662	-0.93325076	0.82607072	0.088583177	-1.136987	0.88892603	-0.0017680756	-0.99612019	1.2951267	-0.19103635	-1.0139754	1.2743594	0.17243377	-1.0833153	1.3232445	-0.013442376	-0.98715067	0.96830986	-0.24847056	-1.1448488	0.98584966	0.21187451	-0.7741635	0.84054911	-0.22809713	-1.0794739	0.76124986	0.25980061
71	0.28	-1.4631578	0.049130307	-0.11475222	-0.69549558	0.03661558	0.034362672	-1.4568689	0.17851418	-0.14699404	-0.82952891	0.06148173	0.057432829	-1.4413816	0.17978847	-0.065822444	-0.81519618	0.079998683	-0.030203007	-1.5007794	0.23476835	-0.096616319	-0.88660616	0.037694363	-0.0039309563	-1.1222936	0.36784642	-0.16224659	-0.81971757	0.44808449	0.083905317	-1.1248989	0.35994041	-0.041985631	-0.8639449	0.43127051	-0.034364491	-1.0528137	0.74760001	-0.18134334	-0.99627406	0.77779529	0.16112136	-0.96709115	0.79878202	-0.14688363	-0.92622111	0.82696632	0.089493873	-1.1304017	0.8896988	-0.0016495699	-0.98971915	1.2960009	-0.19054523	-1.0071898	1.2751373	0.17286374	-1.0770199	1.3240606	-0.012873914	-0.98201556	0.96926729	-0.24757513	-1.137382	0.98618874	0.2123692	-0.77062884	0.83880529	-0.22826901	-1.0702544	0.76194647	0.26102728
72	0.284	-1.4564201	0.051715581	-0.11511204	-0.69525249	0.036347411	0.034266779	-1.4466964	0.18155805	-0.14705646	-0.82932272	0.061440864	0.057176498	-1.4306453	0.1827065	-0.066098742	-0.81472999	0.079855401	-0.030352068	-1.4891593	0.23868218	-0.09640258	-0.88654074	0.037719885	-0.0039887893	-1.1103784	0.36734183	-0.16293315	-0.81507068	0.44769696	0.084850888	-1.1121182	0.35864531	-0.042634445	-0.85775465	0.431661	-0.03426414	-1.0451834	0.74835923	-0.18074559	-0.98793217	0.77887959	0.16217115	-0.95999197	0.79965286	-0.145989	-0.91938599	0.82783516	0.090381273	-1.1244104	0.89072288	-0.0026618876	-0.98338299	1.2968886	-0.19013061	-1.000409	1.2759576	0.17327462	-1.0707355	1.3249809	-0.012305267	-0.97689922	0.97030402	-0.24685762	-1.1300309	0.98649512	0.21269	-0.76705339	0.83711999	-0.22841675	-1.0611572	0.76263216	0.26218584
73	0.288	-1.448529	0.054488909	-0.11547092	-0.69510339	0.036140371	0.034218855	-1.4364711	0.18468645	-0.14728651	-0.82907276	0.061281498	0.057031564	-1.4197243	0.18571154	-0.066297077	-0.81427857	0.079762911	-0.030436818	-1.4777113	0.24217711	-0.095728443	-0.88651942	0.037736298	-0.0040250648	-1.0982683	0.36693081	-0.16364742	-0.8105976	0.4472655	0.085863081	-1.0993665	0.35765765	-0.043217897	-0.85205257	0.43194239	-0.034052748	-1.0376144	0.74927248	-0.18012669	-0.98160308	0.77968662	0.16270261	-0.95299398	0.80061954	-0.14516872	-0.91280861	0.82868711	0.091246448	-1.1187154	0.89186608	-0.0041962361	-0.97711657	1.2977905	-0.18977009	-0.99363371	1.276824	0.17367585	-1.064444	1.3260102	-0.011728919	-0.97175891	0.97142881	-0.24617963	-1.1227188	0.98681156	0.2129685	-0.76341697	0.83549823	-0.22853863	-1.052373	0.76328226	0.26325296
